<?xml version="1.0" encoding="UTF-8"?>
<svg xmlns="http://www.w3.org/2000/svg" viewBox="0 0 1920 1080" preserveAspectRatio="xMidYMid slice">
  <defs>
    <!-- Background gradient (dark violet/indigo) -->
    <linearGradient id="bg" x1="0" y1="0" x2="1" y2="1">
      <stop offset="0%" stop-color="#0f1020"/>
      <stop offset="50%" stop-color="#16172a"/>
      <stop offset="100%" stop-color="#1e1e2d"/>
    </linearGradient>

    <!-- Soft radial blobs -->
    <radialGradient id="blob1" cx="50%" cy="50%" r="50%">
      <stop offset="0%" stop-color="#7c3aed" stop-opacity="0.35"/>
      <stop offset="100%" stop-color="#7c3aed" stop-opacity="0"/>
    </radialGradient>
    <radialGradient id="blob2" cx="50%" cy="50%" r="50%">
      <stop offset="0%" stop-color="#22d3ee" stop-opacity="0.25"/>
      <stop offset="100%" stop-color="#22d3ee" stop-opacity="0"/>
    </radialGradient>
    <radialGradient id="blob3" cx="50%" cy="50%" r="50%">
      <stop offset="0%" stop-color="#a855f7" stop-opacity="0.22"/>
      <stop offset="100%" stop-color="#a855f7" stop-opacity="0"/>
    </radialGradient>

    <!-- Subtle grid pattern -->
    <pattern id="grid" width="40" height="40" patternUnits="userSpaceOnUse">
      <path d="M 40 0 L 0 0 0 40" fill="none" stroke="#3a3b52" stroke-opacity="0.22" stroke-width="1"/>
    </pattern>

    <!-- Chat bubble symbol -->
    <symbol id="bubble" viewBox="0 0 48 48">
      <path d="M8 10a10 10 0 0 1 10-10h12a10 10 0 0 1 10 10v10a10 10 0 0 1-10 10H21l-9 8 3-8H18A10 10 0 0 1 8 20V10Z"
            transform="translate(0,8)" fill="none" stroke="#c4b5fd" stroke-width="2" stroke-linecap="round" stroke-linejoin="round" opacity="0.5"/>
      <circle cx="18" cy="28" r="2" fill="#c4b5fd" opacity="0.7"/>
      <circle cx="26" cy="28" r="2" fill="#c4b5fd" opacity="0.6"/>
      <circle cx="34" cy="28" r="2" fill="#c4b5fd" opacity="0.5"/>
    </symbol>

    <!-- Light noise via tiny repeating dots -->
    <pattern id="noise" width="3" height="3" patternUnits="userSpaceOnUse">
      <circle cx="1" cy="1" r="0.4" fill="#ffffff" opacity="0.04"/>
    </pattern>
  </defs>

  <!-- Base gradient -->
  <rect width="100%" height="100%" fill="url(#bg)"/>

  <!-- Decorative blobs -->
  <circle cx="220" cy="180" r="300" fill="url(#blob1)"/>
  <circle cx="1680" cy="220" r="260" fill="url(#blob2)"/>
  <circle cx="1440" cy="860" r="360" fill="url(#blob3)"/>
  <circle cx="380" cy="900" r="280" fill="url(#blob2)"/>

  <!-- Subtle grid overlay -->
  <rect width="100%" height="100%" fill="url(#grid)" opacity="0.25"/>

  <!-- Floating chat bubbles (very subtle) -->
  <g opacity="0.18">
    <use href="#bubble" x="180" y="140" width="64" height="64"/>
    <use href="#bubble" x="420" y="260" width="80" height="80"/>
    <use href="#bubble" x="760" y="160" width="72" height="72"/>
    <use href="#bubble" x="1080" y="320" width="64" height="64"/>
    <use href="#bubble" x="1380" y="140" width="72" height="72"/>
    <use href="#bubble" x="1220" y="700" width="80" height="80"/>
    <use href="#bubble" x="540" y="780" width="72" height="72"/>
    <use href="#bubble" x="260" y="620" width="64" height="64"/>
    <use href="#bubble" x="1560" y="520" width="80" height="80"/>
  </g>

  <!-- Noise overlay -->
  <rect width="100%" height="100%" fill="url(#noise)"/>

  <!-- Vignette for focus -->
  <radialGradient id="vignette" cx="50%" cy="50%" r="65%">
    <stop offset="60%" stop-color="#000" stop-opacity="0"/>
    <stop offset="100%" stop-color="#000" stop-opacity="0.25"/>
  </radialGradient>
  <rect width="100%" height="100%" fill="url(#vignette)"/>
</svg>
